<?xml version="1.0" standalone="no"?>
<!DOCTYPE svg PUBLIC "-//W3C//DTD SVG 20010904//EN"
 "http://www.w3.org/TR/2001/REC-SVG-20010904/DTD/svg10.dtd">
<svg version="1.0" xmlns="http://www.w3.org/2000/svg"
 width="512.000000pt" height="512.000000pt" viewBox="0 0 512.000000 512.000000"
 preserveAspectRatio="xMidYMid meet">

<g transform="translate(0.000000,512.000000) scale(0.100000,-0.100000)"
fill="#FAAA82" stroke="none">
<path d="M2510 5106 c-32 -12 -2030 -898 -2297 -1017 -95 -43 -114 -56 -127
-84 -14 -30 -16 -181 -16 -1439 l0 -1406 28 -29 c20 -21 347 -175 1223 -575
658 -300 1210 -549 1226 -552 24 -5 244 92 1239 546 886 405 1216 560 1236
581 l28 29 0 1406 c0 1259 -2 1409 -16 1439 -13 29 -32 41 -137 88 -735 330
-2299 1018 -2322 1021 -17 3 -46 -1 -65 -8z m276 -292 c120 -53 222 -99 226
-103 4 -3 -458 -230 -1027 -504 l-1033 -498 -273 125 c-248 113 -271 126 -248
136 479 215 2117 939 2125 939 6 1 110 -42 230 -95z m854 -388 c1 -5 -476
-239 -1060 -520 -584 -282 -1073 -522 -1086 -535 l-24 -23 0 -485 c0 -442 -1
-485 -16 -479 -9 3 -115 52 -235 109 l-219 102 2 464 3 464 1124 542 1125 541
192 -85 c106 -47 193 -90 194 -95z m622 -267 c200 -89 383 -170 407 -181 l45
-19 -1060 -485 c-582 -267 -1070 -487 -1084 -490 -18 -3 -131 44 -395 165
l-369 170 164 80 c538 263 1907 920 1917 920 7 1 176 -72 375 -160z m-3710
-477 l258 -117 0 -532 0 -532 23 -25 c21 -23 653 -327 710 -341 16 -4 41 -2
58 5 59 25 59 22 59 550 0 264 3 480 8 480 4 -1 183 -81 397 -179 l390 -179 3
-1282 c2 -1025 0 -1281 -10 -1277 -17 6 -2101 959 -2150 983 l-38 18 0 1279
c0 1214 1 1279 18 1272 9 -3 133 -59 274 -123z m4308 -1150 l0 -1278 -37 -18
c-50 -24 -2134 -977 -2151 -983 -10 -4 -12 252 -10 1277 l3 1282 1090 499
c600 274 1093 498 1098 499 4 0 7 -575 7 -1278z"/>
</g>
</svg>
