<?xml version="1.0" standalone="no"?>
<!DOCTYPE svg PUBLIC "-//W3C//DTD SVG 20010904//EN"
 "http://www.w3.org/TR/2001/REC-SVG-20010904/DTD/svg10.dtd">
<svg version="1.0" xmlns="http://www.w3.org/2000/svg"
 width="512.000000pt" height="512.000000pt" viewBox="0 0 512.000000 512.000000"
 preserveAspectRatio="xMidYMid meet">

<g transform="translate(0.000000,512.000000) scale(0.100000,-0.100000)"
fill="#FAAA82" stroke="none">
<path d="M2253 3930 c-434 -66 -797 -220 -1149 -487 l-29 -22 310 -311 c170
-170 316 -310 322 -310 8 0 13 13 13 30 0 110 133 230 255 230 32 0 69 -9 102
-24 l52 -25 63 20 c35 10 111 27 171 36 l107 17 0 433 0 433 -47 -1 c-27 0
-103 -9 -170 -19z"/>
<path d="M2660 3506 l0 -434 68 -7 c207 -22 474 -124 650 -249 l43 -30 309
309 c171 171 310 312 310 316 0 10 -172 135 -260 190 -203 125 -483 238 -710
288 -108 23 -311 51 -371 51 l-39 0 0 -434z"/>
<path d="M835 3198 c-262 -283 -462 -649 -561 -1031 -47 -176 -36 -227 56
-274 43 -22 52 -23 375 -23 208 0 345 4 369 11 60 16 89 55 115 150 59 217
161 409 299 568 l56 64 -312 308 c-171 170 -314 309 -316 309 -2 0 -39 -37
-81 -82z"/>
<path d="M3886 2971 l-309 -309 55 -64 c138 -158 240 -351 299 -567 26 -95 55
-134 115 -150 50 -14 675 -15 723 -1 45 13 99 66 107 104 7 41 -28 200 -77
349 -111 335 -286 627 -523 875 -38 39 -72 72 -75 72 -3 0 -145 -139 -315
-309z"/>
<path d="M1940 2830 c-11 -11 -18 -25 -15 -32 2 -7 47 -158 100 -336 l95 -323
-29 -37 c-80 -100 -116 -222 -109 -367 8 -157 59 -273 169 -382 114 -112 224
-162 379 -170 174 -9 319 46 440 167 219 219 229 572 23 799 -116 129 -259
191 -438 191 l-104 0 -208 232 c-252 282 -248 278 -268 278 -8 0 -24 -9 -35
-20z m688 -865 c102 -31 164 -115 164 -225 0 -90 -50 -168 -136 -212 -59 -30
-168 -23 -224 15 -169 111 -123 380 73 426 57 13 66 13 123 -4z"/>
</g>
</svg>
