<?xml version="1.0" standalone="no"?>
<!DOCTYPE svg PUBLIC "-//W3C//DTD SVG 20010904//EN"
 "http://www.w3.org/TR/2001/REC-SVG-20010904/DTD/svg10.dtd">
<svg version="1.0" xmlns="http://www.w3.org/2000/svg"
 width="512.000000pt" height="512.000000pt" viewBox="0 0 512.000000 512.000000"
 preserveAspectRatio="xMidYMid meet">

<g transform="translate(0.000000,512.000000) scale(0.100000,-0.100000)"
fill="#000000" stroke="none">
<path d="M769 4596 c-102 -27 -181 -95 -228 -196 l-26 -55 0 -1785 0 -1785 26
-56 c37 -79 90 -133 167 -171 l67 -33 1785 0 1785 0 67 33 c77 38 130 92 167
171 l26 56 0 1785 0 1785 -33 67 c-38 77 -92 130 -171 167 l-56 26 -1765 2
c-1378 1 -1775 -1 -1811 -11z m3496 -2036 l0 -1705 -1705 0 -1705 0 -3 1695
c-1 932 0 1701 3 1708 3 10 350 12 1707 10 l1703 -3 0 -1705z"/>
<path d="M1630 2900 l0 -840 330 0 330 0 0 115 0 115 -205 0 -205 0 0 725 0
725 -125 0 -125 0 0 -840z"/>
<path d="M2440 2900 l0 -840 120 0 120 0 1 468 1 467 29 -110 c17 -60 62 -236
102 -390 l72 -280 65 0 64 0 98 385 c54 212 100 390 103 395 2 6 4 -203 2
-462 l-2 -473 122 0 123 0 0 840 0 841 -121 -3 -121 -3 -133 -469 c-74 -258
-137 -471 -140 -474 -3 -3 -5 2 -5 11 0 12 -215 785 -256 920 -5 15 -20 17
-125 17 l-119 0 0 -840z"/>
<path d="M1370 1540 l0 -170 1190 0 1190 0 0 170 0 170 -1190 0 -1190 0 0
-170z"/>
</g>
</svg>
