<?xml version="1.0" standalone="no"?>
<!DOCTYPE svg PUBLIC "-//W3C//DTD SVG 20010904//EN"
 "http://www.w3.org/TR/2001/REC-SVG-20010904/DTD/svg10.dtd">
<svg version="1.0" xmlns="http://www.w3.org/2000/svg"
 width="500.000000pt" height="500.000000pt" viewBox="0 0 500.000000 500.000000"
 preserveAspectRatio="xMidYMid meet">

<g transform="translate(0.000000,500.000000) scale(0.100000,-0.100000)"
fill="#FAAA82" stroke="none">
<path d="M4518 4793 c-63 -40 -179 -266 -224 -439 -19 -73 -27 -135 -31 -235
-8 -204 9 -312 107 -669 30 -108 37 -256 16 -354 -14 -68 -16 -178 -16 -887
l0 -809 28 -31 c23 -26 38 -33 80 -37 49 -4 54 -2 87 31 l35 35 -2 1685 c-3
1641 -3 1685 -22 1706 -23 25 -24 25 -58 4z"/>
<path d="M447 4634 c-19 -31 -51 -532 -45 -706 3 -108 7 -130 31 -183 16 -33
50 -82 76 -110 27 -27 54 -60 60 -72 8 -15 11 -320 11 -1073 0 -870 2 -1056
14 -1084 28 -68 101 -95 166 -61 64 33 60 -47 60 1125 0 666 4 1078 10 1100 5
20 28 55 51 78 88 92 99 161 80 529 -18 352 -34 488 -54 456 -16 -25 -32 -202
-53 -561 -7 -119 -13 -132 -62 -132 -40 0 -46 24 -59 258 -13 236 -29 418 -39
433 -25 41 -42 -86 -64 -480 -6 -103 -15 -191 -22 -198 -16 -19 -62 -16 -82 6
-14 15 -19 52 -26 202 -17 331 -36 500 -53 473z"/>
<path d="M2347 4530 c-518 -81 -976 -416 -1212 -889 -124 -250 -181 -546 -157
-820 15 -165 33 -256 83 -406 75 -226 192 -415 369 -598 194 -201 414 -337
680 -421 286 -91 663 -89 956 5 422 134 761 425 959 824 124 249 171 473 162
760 -9 262 -54 443 -167 670 -218 439 -621 750 -1110 857 -76 17 -137 22 -300
24 -113 1 -231 -1 -263 -6z m436 -335 c493 -74 903 -446 1031 -935 118 -450
-9 -909 -342 -1232 -180 -175 -350 -268 -607 -334 -100 -25 -126 -28 -280 -28
-185 1 -248 10 -412 65 -438 145 -769 531 -847 988 -21 122 -21 333 0 442 70
373 296 694 616 878 144 83 300 138 453 160 96 14 282 12 388 -4z"/>
<path d="M2383 4046 c-232 -44 -431 -152 -603 -325 -163 -164 -266 -364 -306
-594 -24 -135 -15 -350 20 -476 90 -324 300 -578 601 -729 82 -41 242 -88 344
-103 165 -23 377 2 547 66 76 28 204 99 274 152 179 135 328 344 393 549 95
302 69 606 -77 880 -150 281 -408 481 -731 566 -103 27 -354 34 -462 14z"/>
<path d="M1322 981 c-61 -16 -104 -74 -148 -202 -40 -119 -54 -294 -25 -321 9
-9 15 -10 18 -2 2 6 9 19 16 28 12 16 16 15 60 -4 42 -19 54 -20 98 -11 84 18
119 45 119 92 0 42 -31 69 -80 69 -48 0 -50 10 -7 40 66 46 116 139 117 217 0
70 -81 115 -168 94z m73 -41 c9 -29 -4 -109 -26 -157 -13 -26 -41 -57 -74 -82
-30 -23 -55 -46 -55 -51 0 -16 57 -40 95 -40 29 0 36 -3 33 -17 -3 -18 -91
-66 -144 -79 l-27 -7 6 69 c14 144 60 263 134 345 40 44 49 47 58 19z"/>
<path d="M2671 979 c-79 -10 -231 -51 -225 -61 15 -24 87 -48 144 -48 33 0 60
-2 60 -4 0 -2 -10 -35 -22 -72 -28 -88 -32 -246 -7 -285 18 -27 65 -56 76 -45
4 3 2 24 -4 46 -7 29 -7 70 3 152 7 62 13 137 14 166 l0 52 50 0 c48 0 100 16
100 31 0 4 12 9 28 11 26 3 25 4 -18 28 -52 28 -123 38 -199 29z"/>
<path d="M3420 950 c-28 -39 -83 -159 -110 -240 -21 -59 -62 -130 -82 -138
-18 -8 -7 -23 12 -17 17 5 20 2 20 -25 0 -35 38 -80 68 -80 24 0 46 24 77 86
28 55 32 111 11 152 -13 26 -12 30 45 105 86 114 89 148 16 173 -35 12 -37 12
-57 -16z m-20 -319 c-1 -47 -69 -165 -86 -148 -10 10 11 96 38 159 20 46 23
49 35 32 7 -10 13 -29 13 -43z"/>
<path d="M1942 888 c-73 -130 -122 -281 -122 -380 0 -38 5 -52 27 -72 29 -27
43 -26 43 4 0 13 -5 18 -15 13 -13 -4 -15 2 -9 38 8 50 38 159 82 301 31 98
48 168 40 168 -2 0 -23 -33 -46 -72z"/>
<path d="M2145 920 c-75 -118 -125 -259 -140 -391 -6 -53 -5 -59 23 -90 34
-38 37 -37 48 6 7 27 6 29 -9 16 -15 -12 -17 -11 -17 10 0 36 35 172 70 274
29 85 62 215 54 215 -2 0 -15 -18 -29 -40z"/>
<path d="M3678 938 c-75 -114 -147 -317 -150 -420 -1 -52 2 -62 26 -86 22 -23
28 -25 36 -12 5 8 10 23 10 34 0 15 -3 16 -15 6 -12 -10 -15 -9 -15 6 0 32 29
144 65 255 35 109 67 231 61 236 -2 2 -10 -7 -18 -19z"/>
<path d="M1632 733 c-56 -80 -80 -161 -68 -228 5 -27 17 -42 47 -62 36 -24 42
-25 66 -12 24 13 71 95 60 105 -3 3 -14 -7 -25 -23 -11 -15 -34 -36 -50 -45
-27 -16 -31 -16 -36 -2 -3 9 -6 30 -6 48 0 26 6 35 36 51 40 21 84 88 84 128
0 21 -8 30 -37 44 -21 9 -41 19 -44 20 -4 2 -16 -9 -27 -24z m58 -51 c0 -9
-49 -82 -55 -82 -5 0 10 42 25 71 11 19 30 26 30 11z"/>
<path d="M2261 736 c-38 -40 -72 -131 -72 -192 -1 -54 1 -60 35 -91 20 -18 44
-33 54 -33 23 0 57 35 71 73 18 47 13 50 -20 12 -46 -51 -66 -60 -79 -35 -18
34 -3 72 41 102 41 29 86 105 76 130 -3 8 -23 24 -46 35 l-40 20 -20 -21z m38
-83 c-41 -70 -50 -71 -23 -3 9 22 23 40 31 40 12 0 10 -8 -8 -37z"/>
<path d="M3774 725 c-37 -49 -64 -127 -64 -186 0 -46 4 -55 36 -85 19 -19 43
-34 52 -34 27 1 57 32 76 80 l17 44 -50 -47 c-28 -27 -56 -45 -61 -42 -6 3
-10 25 -9 48 0 37 5 45 41 72 48 35 83 95 74 128 -3 14 -20 28 -46 39 l-40 17
-26 -34z m46 -74 c-17 -34 -40 -61 -40 -48 0 9 28 72 36 80 20 20 22 3 4 -32z"/>
<path d="M3006 700 c-48 -44 -116 -168 -116 -209 0 -16 9 -36 20 -46 29 -26
64 -13 94 37 14 24 39 59 56 78 l31 35 -6 -40 c-6 -43 8 -81 37 -99 23 -14 32
-2 17 22 -11 18 -2 91 26 202 6 24 3 26 -55 42 l-62 16 -42 -38z m28 -109
c-26 -34 -49 -61 -51 -61 -9 0 10 47 34 82 21 31 49 50 61 42 2 -1 -18 -30
-44 -63z"/>
</g>
</svg>
