<?xml version="1.0" standalone="no"?>
<!DOCTYPE svg PUBLIC "-//W3C//DTD SVG 20010904//EN"
 "http://www.w3.org/TR/2001/REC-SVG-20010904/DTD/svg10.dtd">
<svg version="1.0" xmlns="http://www.w3.org/2000/svg"
 width="600.000000pt" height="400.000000pt" viewBox="0 0 600.000000 400.000000"
 preserveAspectRatio="xMidYMid meet">

<g transform="translate(0.000000,400.000000) scale(0.100000,-0.100000)"
fill="#000000" stroke="none">
<path d="M4440 2785 c-6 -8 -133 -191 -281 -407 l-269 -393 0 -127 0 -128 265
0 265 0 0 -130 0 -130 180 0 180 0 0 130 0 130 70 0 70 0 0 130 0 130 -70 0
-70 0 0 405 0 405 -164 0 c-132 0 -166 -3 -176 -15z m-17 -623 l-6 -172 -104
0 c-56 0 -103 2 -103 5 0 2 36 60 81 127 45 68 92 145 106 171 13 27 26 47 29
45 2 -3 1 -82 -3 -176z"/>
<path d="M3726 2768 c-77 -118 -96 -265 -55 -424 22 -86 23 -100 20 -480 -3
-353 -1 -392 14 -407 21 -22 38 -21 58 1 15 17 17 77 17 659 0 353 -3 648 -6
657 -9 23 -31 20 -48 -6z"/>
<path d="M2255 2709 c-3 -13 -8 -73 -13 -134 -6 -89 -10 -110 -23 -113 -21 -4
-29 25 -29 113 -1 88 -13 159 -22 130 -11 -33 -21 -259 -13 -293 3 -17 20 -48
36 -68 l29 -37 0 -413 c0 -401 1 -415 20 -434 11 -11 25 -20 30 -20 5 0 19 9
30 20 19 19 20 33 20 443 0 407 1 425 19 441 11 10 24 37 28 60 9 41 -1 303
-11 314 -13 12 -16 -9 -23 -127 -4 -91 -10 -124 -20 -128 -8 -3 -16 -3 -19 0
-3 3 -9 62 -14 132 -10 131 -15 155 -25 114z"/>
<path d="M1493 2553 c-59 -87 -176 -259 -260 -381 l-153 -224 0 -129 0 -129
250 0 250 0 0 -120 0 -120 170 0 170 0 0 120 0 119 68 3 67 3 3 128 3 127 -71
0 -70 0 0 380 0 380 -160 0 -159 0 -108 -157z m89 -440 l-4 -163 -99 0 c-54 0
-99 2 -99 5 0 3 35 58 79 123 43 64 88 137 100 160 12 24 23 42 25 40 1 -1 0
-76 -2 -165z"/>
<path d="M2850 2675 c-170 -42 -332 -171 -407 -326 -51 -104 -66 -169 -66
-279 0 -108 15 -174 64 -277 71 -149 216 -274 374 -323 83 -26 240 -31 325
-11 327 79 534 406 465 736 -49 232 -237 426 -465 479 -78 19 -214 19 -290 1z
m291 -134 c92 -31 141 -61 205 -125 187 -188 193 -491 12 -682 -155 -164 -373
-206 -575 -110 -260 124 -357 452 -207 702 43 73 73 104 141 151 116 80 298
108 424 64z"/>
<path d="M2844 2476 c-74 -27 -105 -49 -167 -115 -158 -168 -150 -443 17 -606
67 -65 138 -101 231 -116 221 -36 425 93 490 308 57 188 -39 417 -214 507
-100 52 -252 61 -357 22z"/>
<path d="M1291 1006 c-35 -19 -50 -54 -51 -114 0 -46 4 -58 30 -83 26 -27 35
-30 81 -27 31 2 54 8 57 15 3 10 -8 11 -41 7 -40 -6 -49 -3 -71 19 -20 20 -26
36 -26 71 0 24 3 52 6 61 11 27 61 47 101 39 28 -5 35 -4 31 7 -6 19 -86 22
-117 5z"/>
<path d="M2150 900 c0 -100 3 -120 15 -120 11 0 15 12 15 44 0 43 0 43 42 50
54 9 78 31 78 70 0 54 -31 76 -104 76 l-46 0 0 -120z m118 57 c5 -38 -14 -57
-54 -57 -34 0 -34 0 -34 46 l0 45 43 -3 c38 -3 42 -6 45 -31z"/>
<path d="M3190 981 c0 -45 15 -62 24 -28 10 39 7 67 -9 67 -11 0 -15 -11 -15
-39z"/>
<path d="M3630 1005 c0 -8 7 -15 15 -15 8 0 15 7 15 15 0 8 -7 15 -15 15 -8 0
-15 -7 -15 -15z"/>
<path d="M1650 988 c0 -6 -7 -20 -17 -30 -9 -11 -11 -18 -5 -18 8 0 12 -21 12
-61 0 -76 12 -99 50 -99 35 0 41 17 8 22 -21 3 -23 9 -26 71 -3 66 -3 67 23
67 14 0 25 5 25 10 0 6 -11 10 -25 10 -18 0 -25 5 -25 20 0 11 -4 20 -10 20
-5 0 -10 -5 -10 -12z"/>
<path d="M1770 990 c0 -5 -9 -19 -20 -30 -16 -16 -17 -20 -5 -20 12 0 15 -14
15 -68 0 -75 9 -92 52 -92 33 0 38 17 6 22 -21 3 -23 9 -26 71 -3 66 -3 67 23
67 14 0 25 5 25 10 0 6 -11 10 -25 10 -18 0 -25 5 -25 20 0 11 -4 20 -10 20
-5 0 -10 -4 -10 -10z"/>
<path d="M3885 985 c-5 -11 -15 -25 -23 -31 -13 -9 -13 -12 2 -17 12 -5 16
-20 16 -70 0 -36 5 -68 12 -75 14 -14 68 -16 68 -2 0 6 -11 10 -24 10 -29 0
-36 16 -36 86 0 51 1 54 25 54 14 0 25 5 25 10 0 6 -11 10 -24 10 -18 0 -26 6
-29 23 -3 21 -4 21 -12 2z"/>
<path d="M1471 941 c-43 -43 -29 -143 22 -156 35 -9 90 -2 95 12 3 10 -8 11
-41 7 -39 -6 -46 -3 -61 17 -9 13 -16 27 -16 31 0 5 27 8 60 8 l60 0 0 30 c0
61 -77 93 -119 51z m87 -28 c14 -23 14 -23 -37 -23 -53 0 -55 3 -28 38 15 19
47 11 65 -15z"/>
<path d="M1891 934 c-30 -38 -28 -103 3 -133 18 -17 33 -22 67 -19 23 2 44 9
47 16 3 9 -3 11 -22 6 -38 -9 -76 3 -85 29 -8 21 -5 22 53 27 60 5 61 5 59 34
-5 66 -82 91 -122 40z m83 -10 c26 -25 19 -34 -29 -34 -46 0 -58 13 -33 38 17
17 44 15 62 -4z"/>
<path d="M2373 953 c-24 -9 -13 -25 13 -19 35 9 64 -2 64 -24 0 -13 -10 -20
-37 -25 -21 -4 -46 -11 -55 -16 -21 -11 -24 -59 -6 -77 16 -16 70 -15 87 1 11
10 14 10 18 0 12 -34 23 -6 23 60 0 59 -4 77 -18 90 -18 16 -63 21 -89 10z
m77 -106 c0 -29 -18 -47 -46 -47 -25 0 -49 24 -39 40 8 14 43 28 68 29 11 1
17 -7 17 -22z"/>
<path d="M2547 942 c-18 -19 -23 -63 -9 -76 13 -14 7 -71 -10 -88 -23 -23 -23
-33 2 -58 37 -37 135 -19 146 27 10 37 -20 63 -73 63 -55 0 -54 20 0 33 41 10
61 37 54 73 -3 16 0 24 9 24 8 0 14 5 14 10 0 6 -26 10 -58 10 -44 0 -63 -5
-75 -18z m81 -38 c3 -34 -16 -49 -48 -39 -43 14 -26 78 18 73 22 -2 28 -9 30
-34z m20 -146 c-6 -43 -108 -51 -108 -9 0 27 9 31 62 31 45 0 49 -2 46 -22z"/>
<path d="M2735 935 c-32 -31 -34 -91 -4 -129 18 -23 27 -27 67 -24 25 2 47 8
49 15 3 8 -8 10 -35 6 -28 -4 -43 -1 -55 12 -33 33 -21 45 43 45 56 0 60 1 60
24 0 13 -9 35 -21 50 -27 34 -71 35 -104 1z m83 -7 c25 -25 13 -38 -33 -38
-48 0 -55 9 -29 34 18 19 45 21 62 4z"/>
<path d="M2990 870 c0 -73 3 -90 15 -90 12 0 15 14 15 64 0 82 23 110 74 90
13 -5 16 -22 16 -80 0 -59 3 -74 15 -74 24 0 21 141 -3 163 -21 19 -73 22 -89
6 -8 -8 -13 -8 -17 0 -18 28 -26 3 -26 -79z"/>
<path d="M3285 935 c-32 -31 -34 -91 -4 -129 18 -23 27 -27 67 -24 25 2 47 8
49 15 3 8 -8 10 -35 6 -28 -4 -43 -1 -55 12 -33 33 -21 45 43 45 56 0 60 1 60
24 0 13 -9 35 -21 50 -27 34 -71 35 -104 1z m83 -7 c25 -25 13 -38 -33 -38
-48 0 -55 9 -29 34 18 19 45 21 62 4z"/>
<path d="M3446 948 c4 -7 17 -27 30 -44 l23 -32 -29 -41 c-34 -46 -35 -51 -17
-51 6 0 23 16 36 36 27 39 25 40 64 -20 7 -10 19 -17 26 -15 8 3 2 18 -19 47
l-31 43 31 42 c20 28 26 43 18 46 -6 2 -18 -5 -25 -15 -40 -61 -38 -60 -62
-20 -13 20 -29 36 -37 36 -9 0 -12 -5 -8 -12z"/>
<path d="M3630 870 c0 -73 3 -90 15 -90 12 0 15 17 15 90 0 73 -3 90 -15 90
-12 0 -15 -17 -15 -90z"/>
<path d="M3716 938 c-20 -28 -6 -53 42 -76 24 -11 37 -24 37 -37 0 -17 -6 -20
-42 -19 -30 0 -43 -3 -43 -13 0 -9 14 -13 43 -13 91 0 105 57 25 100 -27 14
-48 31 -48 37 0 15 44 28 66 19 22 -8 40 4 23 15 -28 17 -87 10 -103 -13z"/>
<path d="M4019 950 c-44 -26 -48 -125 -6 -155 28 -20 107 -20 107 -1 0 11 -9
13 -35 9 -26 -4 -41 -1 -55 12 -36 33 -25 45 40 45 l60 0 0 30 c0 55 -63 88
-111 60z m69 -22 c25 -25 13 -38 -33 -38 -49 0 -53 4 -28 32 19 21 44 23 61 6z"/>
<path d="M4270 830 c0 -80 4 -130 10 -130 6 0 10 23 10 52 0 40 3 49 12 40 19
-19 76 -14 98 8 15 15 20 33 20 70 0 76 -50 112 -111 80 -13 -7 -19 -7 -19 0
0 5 -4 10 -10 10 -6 0 -10 -50 -10 -130z m101 100 c15 -8 19 -21 19 -58 0 -27
-5 -53 -12 -60 -33 -33 -88 4 -88 58 0 31 26 70 46 70 9 0 24 -5 35 -10z"/>
<path d="M4493 953 c-27 -10 -11 -22 30 -20 36 2 42 -1 45 -19 3 -18 -4 -23
-35 -29 -21 -4 -46 -11 -55 -16 -21 -11 -24 -59 -6 -77 16 -16 70 -15 87 1 11
10 14 10 18 0 12 -34 23 -5 23 61 0 54 -4 79 -16 90 -15 15 -65 20 -91 9z m77
-107 c0 -30 -22 -49 -52 -44 -33 4 -37 45 -6 57 41 17 58 13 58 -13z"/>
<path d="M4656 938 c-20 -28 -6 -53 42 -76 24 -11 37 -24 37 -37 0 -17 -6 -20
-42 -19 -30 0 -43 -3 -43 -13 0 -9 14 -13 43 -13 91 0 105 57 25 100 -27 14
-48 31 -48 37 0 15 44 28 66 19 22 -8 40 4 23 15 -28 17 -87 10 -103 -13z"/>
</g>
</svg>
