<?xml version="1.0" standalone="no"?>
<!DOCTYPE svg PUBLIC "-//W3C//DTD SVG 20010904//EN"
 "http://www.w3.org/TR/2001/REC-SVG-20010904/DTD/svg10.dtd">
<svg version="1.0" xmlns="http://www.w3.org/2000/svg"
 width="300.000000pt" height="80.000000pt" viewBox="0 0 300.000000 80.000000"
 preserveAspectRatio="xMidYMid meet">

<g transform="translate(0.000000,80.000000) scale(0.100000,-0.100000)"
fill="#FAAA82" stroke="none">
<path d="M915 709 c-28 -60 -33 -145 -14 -214 7 -24 12 -130 13 -265 1 -218 2
-225 21 -225 20 0 20 8 23 369 1 232 -1 373 -8 380 -6 6 -18 -9 -35 -45z"/>
<path d="M107 676 c-4 -27 -7 -62 -7 -77 0 -16 -4 -29 -10 -29 -12 0 -19 29
-23 95 -2 46 -3 43 -11 -30 -8 -71 -7 -83 13 -120 20 -37 21 -54 21 -266 0
-186 3 -229 15 -239 31 -26 35 -1 35 235 0 213 2 237 19 267 17 29 19 45 13
123 -6 93 -18 83 -21 -17 0 -27 -5 -48 -10 -48 -9 0 -18 45 -24 120 -2 32 -3
31 -10 -14z"/>
<path d="M414 682 c-144 -51 -234 -179 -234 -332 0 -138 77 -258 202 -316 87
-40 196 -41 280 -2 75 35 138 94 174 165 26 52 29 68 29 153 0 76 -4 104 -22
142 -30 66 -105 143 -170 175 -73 35 -185 42 -259 15z m196 -68 c76 -23 153
-100 176 -179 52 -182 -76 -359 -260 -359 -165 1 -287 134 -274 298 7 78 34
132 94 185 76 67 164 85 264 55z"/>
<path d="M473 591 c-193 -49 -255 -280 -111 -418 45 -43 96 -63 163 -63 66 0
108 16 159 60 96 84 110 217 36 325 -49 71 -165 116 -247 96z"/>
<path d="M1132 554 c-49 -60 -92 -225 -77 -295 l7 -32 19 24 c10 13 19 37 19
52 0 65 32 166 68 218 48 68 62 73 62 20 0 -59 -15 -92 -63 -134 -40 -36 -41
-38 -23 -52 11 -8 33 -15 49 -15 29 0 30 0 12 -20 -10 -11 -21 -20 -25 -20 -4
0 -25 -7 -46 -16 l-38 -16 28 -15 c32 -17 87 -11 124 13 18 12 22 23 20 47 -3
28 -8 33 -39 41 l-36 9 35 31 c40 35 62 81 62 130 0 48 -22 66 -80 66 -44 0
-52 -4 -78 -36z"/>
<path d="M1998 572 c-32 -9 -58 -19 -58 -23 0 -14 81 -39 107 -33 29 8 29 11
3 -108 -15 -66 -7 -121 21 -149 29 -29 43 -24 35 14 -4 17 -1 80 5 139 l12
107 39 6 c22 4 51 13 65 20 l25 13 -30 16 c-40 21 -147 20 -224 -2z"/>
<path d="M2601 576 c-14 -18 -57 -108 -76 -161 -10 -27 -30 -65 -44 -84 -19
-26 -21 -33 -8 -28 13 5 17 1 17 -18 0 -15 10 -31 25 -41 32 -21 47 -10 75 54
17 38 18 50 9 82 -11 35 -9 40 25 84 37 48 52 87 42 104 -9 15 -55 20 -65 8z
m-21 -224 c0 -30 -34 -92 -51 -92 -11 0 -8 18 17 88 17 45 34 48 34 4z"/>
<path d="M1587 504 c-64 -127 -87 -248 -53 -282 15 -15 18 -15 26 -2 6 9 6 16
0 18 -17 6 -11 45 30 182 22 73 39 138 37 144 -2 6 -20 -21 -40 -60z"/>
<path d="M1742 558 c-23 -30 -72 -139 -86 -195 -21 -79 -20 -116 2 -136 23
-21 32 -21 32 -1 0 8 -5 12 -11 8 -17 -10 -3 63 36 186 46 147 50 165 27 138z"/>
<path d="M2736 496 c-61 -124 -82 -230 -53 -271 14 -18 37 -14 37 6 0 6 -4 7
-10 4 -19 -12 -10 44 31 179 22 75 39 141 37 148 -2 6 -21 -23 -42 -66z"/>
<path d="M1381 411 c-26 -36 -46 -110 -38 -142 3 -13 19 -32 36 -42 27 -16 30
-16 49 1 11 9 23 28 27 42 l7 25 -29 -27 c-37 -36 -53 -35 -53 0 0 21 7 33 26
42 28 15 54 58 54 88 0 10 -11 24 -25 30 -34 15 -31 16 -54 -17z m49 -20 c0
-5 -9 -19 -20 -32 -17 -21 -19 -21 -13 -4 10 33 33 57 33 36z"/>
<path d="M1796 398 c-45 -79 -42 -141 11 -175 20 -14 24 -13 48 11 14 14 25
32 25 40 0 11 -7 8 -25 -10 -29 -29 -49 -27 -53 3 -2 13 9 29 31 46 44 33 66
83 46 102 -8 7 -24 16 -36 19 -18 6 -26 0 -47 -36z m43 -32 c-7 -14 -16 -26
-21 -26 -5 0 -1 14 7 31 20 37 31 33 14 -5z"/>
<path d="M2831 411 c-26 -36 -46 -110 -38 -142 3 -13 19 -32 36 -42 27 -16 30
-16 49 1 11 9 23 28 27 42 l7 25 -29 -27 c-37 -36 -53 -35 -53 0 0 21 7 33 26
42 28 15 54 58 54 88 0 10 -11 24 -25 30 -34 15 -31 16 -54 -17z m49 -20 c0
-5 -9 -19 -20 -32 -17 -21 -19 -21 -13 -4 10 33 33 57 33 36z"/>
<path d="M2313 398 c-35 -37 -73 -108 -73 -136 0 -21 18 -42 36 -42 7 0 30 24
51 52 l38 53 3 -32 c2 -17 12 -39 23 -49 20 -18 20 -18 14 8 -6 25 4 99 20
139 5 12 -1 18 -22 23 -15 4 -35 9 -44 12 -8 2 -28 -10 -46 -28z m47 -34 c0
-10 -53 -75 -58 -70 -6 7 38 76 49 76 5 0 9 -3 9 -6z"/>
</g>
</svg>
