<?xml version="1.0" standalone="no"?>
<!DOCTYPE svg PUBLIC "-//W3C//DTD SVG 20010904//EN"
 "http://www.w3.org/TR/2001/REC-SVG-20010904/DTD/svg10.dtd">
<svg version="1.0" xmlns="http://www.w3.org/2000/svg"
 width="500.000000pt" height="200.000000pt" viewBox="0 0 500.000000 200.000000"
 preserveAspectRatio="xMidYMid meet">

<g transform="translate(0.000000,200.000000) scale(0.100000,-0.100000)"
fill="#FAAA82" stroke="none">
<path d="M1025 1328 c-28 -59 -34 -156 -14 -218 7 -23 11 -121 9 -276 -1 -205
1 -242 14 -253 8 -7 20 -10 26 -6 14 9 14 805 0 805 -6 0 -22 -24 -35 -52z"/>
<path d="M157 1311 c-4 -18 -7 -56 -7 -83 0 -35 -4 -48 -12 -46 -9 3 -14 30
-16 76 -4 106 -22 88 -22 -22 0 -78 3 -97 20 -119 19 -24 20 -40 20 -281 0
-220 2 -257 15 -262 8 -4 22 -1 30 6 13 10 15 54 15 269 1 209 3 260 15 275
11 14 15 44 14 100 -1 118 -14 140 -23 38 -7 -83 -25 -113 -27 -44 0 20 -4 57
-8 82 l-7 45 -7 -34z"/>
<path d="M483 1301 c-105 -39 -171 -101 -219 -205 -32 -70 -40 -140 -24 -218
15 -78 40 -127 93 -185 183 -199 499 -145 615 105 23 48 27 71 27 147 0 80 -3
97 -32 157 -39 83 -101 146 -179 183 -79 38 -203 45 -281 16z m227 -76 c145
-51 225 -224 175 -376 -26 -76 -112 -161 -185 -183 -119 -35 -216 -12 -301 73
-70 71 -94 137 -86 237 8 109 93 220 191 252 48 15 159 14 206 -3z"/>
<path d="M540 1201 c-136 -42 -216 -172 -188 -306 19 -90 77 -158 163 -190 54
-21 163 -17 212 8 125 65 176 231 107 356 -30 56 -87 106 -147 128 -36 13
-110 15 -147 4z"/>
<path d="M3630 1251 c-43 -23 -47 -34 -15 -51 20 -10 28 -11 37 -2 7 7 22 12
33 12 l21 0 -25 -72 c-41 -120 -29 -320 22 -352 9 -6 19 -7 23 -4 3 4 9 47 12
96 l5 88 40 3 c53 3 70 13 112 68 65 85 43 138 -78 193 -83 38 -144 45 -187
21z m207 -89 c8 -5 6 -18 -8 -47 -18 -36 -69 -99 -75 -92 -4 4 31 121 40 136
8 13 26 14 43 3z"/>
<path d="M1265 1206 c-41 -43 -79 -138 -100 -247 -22 -117 -6 -212 27 -159 15
24 26 25 64 5 49 -26 150 1 175 46 24 47 -12 89 -78 89 -23 0 -22 3 25 45 34
31 55 60 66 92 38 112 11 163 -88 163 -54 0 -61 -3 -91 -34z m115 -38 c-1 -74
-29 -131 -84 -170 -25 -17 -46 -37 -46 -43 0 -16 44 -35 80 -35 49 0 37 -28
-24 -55 -87 -38 -91 -38 -88 15 4 63 31 178 53 220 20 41 86 120 100 120 5 0
9 -24 9 -52z"/>
<path d="M2378 1217 c-49 -12 -88 -25 -88 -29 0 -19 84 -50 127 -46 40 3 44 1
40 -17 -36 -163 -40 -196 -28 -249 8 -38 19 -59 36 -70 38 -25 48 -21 39 17
-9 40 -9 34 7 193 l13 132 49 6 c27 4 60 14 73 22 13 9 28 13 34 9 5 -3 10 -2
10 4 0 5 -19 19 -43 30 -57 27 -152 27 -269 -2z"/>
<path d="M3130 1209 c-25 -34 -81 -156 -104 -224 -9 -28 -30 -66 -47 -84 -26
-29 -27 -33 -10 -28 17 4 21 0 21 -19 0 -27 40 -74 63 -74 19 0 50 38 71 87
18 40 18 78 1 128 -4 15 5 35 35 72 45 57 73 115 64 136 -3 8 -20 19 -39 25
-33 9 -36 8 -55 -19z m-20 -280 c0 -46 -63 -139 -68 -101 -3 22 20 107 40 146
14 26 28 3 28 -45z"/>
<path d="M1882 1208 c-5 -7 -28 -50 -51 -95 -45 -90 -80 -205 -83 -270 -2 -66
50 -125 60 -68 3 10 0 15 -7 11 -26 -16 -7 84 49 259 28 87 51 175 45 175 -1
0 -7 -6 -13 -12z"/>
<path d="M2042 1208 c-5 -7 -28 -50 -51 -95 -45 -90 -80 -205 -83 -270 -2 -66
50 -125 60 -68 3 10 0 15 -7 11 -26 -16 -7 84 49 259 28 87 51 175 45 175 -1
0 -7 -6 -13 -12z"/>
<path d="M3337 1174 c-56 -93 -101 -218 -112 -315 -6 -51 -5 -58 19 -85 22
-24 27 -27 36 -14 5 8 10 21 10 29 0 11 -3 11 -15 1 -12 -10 -15 -10 -15 1 0
28 31 146 65 249 32 100 52 180 44 180 -2 0 -17 -21 -32 -46z"/>
<path d="M4620 1110 c0 -34 21 -40 48 -14 15 15 14 18 -3 30 -30 22 -45 17
-45 -16z"/>
<path d="M4331 1007 c-17 -30 -39 -84 -48 -120 l-17 -66 24 -26 24 -26 18 23
c10 13 18 26 18 30 0 4 9 32 21 63 22 59 77 109 107 98 10 -4 13 -1 10 8 -9
28 -54 22 -94 -13 -29 -25 -36 -28 -30 -13 14 37 18 82 8 89 -6 3 -24 -18 -41
-47z"/>
<path d="M1588 1028 c-48 -73 -62 -121 -59 -196 1 -32 49 -74 79 -70 27 3 56
37 68 78 6 21 3 20 -28 -13 -47 -49 -68 -49 -68 1 0 31 5 40 30 54 37 21 71
75 68 107 -2 15 -15 31 -33 42 -39 23 -40 23 -57 -3z m31 -78 c-12 -22 -24
-38 -26 -36 -8 7 26 76 37 76 6 0 2 -17 -11 -40z"/>
<path d="M2128 1028 c-48 -73 -62 -121 -59 -196 1 -32 49 -74 79 -70 27 3 56
37 68 78 6 21 3 20 -28 -13 -47 -49 -68 -49 -68 1 0 31 5 40 30 54 37 21 71
75 68 107 -2 15 -15 31 -33 42 -39 23 -40 23 -57 -3z m31 -78 c-12 -22 -24
-38 -26 -36 -8 7 26 76 37 76 6 0 2 -17 -11 -40z"/>
<path d="M3447 1033 c-30 -34 -67 -127 -67 -171 0 -35 6 -49 29 -73 16 -16 39
-29 50 -29 21 0 61 32 61 49 0 5 3 18 7 28 4 12 -7 6 -30 -16 -42 -39 -67 -36
-67 8 0 22 8 34 33 50 18 11 43 39 56 61 19 35 21 46 12 66 -6 13 -19 24 -29
24 -10 0 -23 5 -28 10 -7 7 -16 5 -27 -7z m43 -50 c0 -11 -39 -73 -45 -73 -3
0 2 16 10 36 8 20 15 38 15 40 0 2 5 4 10 4 6 0 10 -3 10 -7z"/>
<path d="M4740 1021 c-17 -33 -11 -73 17 -114 21 -30 24 -42 16 -55 -14 -24
-70 -27 -94 -6 -15 13 -19 14 -19 3 0 -8 14 -23 32 -34 72 -45 75 -46 102 -33
39 17 43 51 12 98 -43 66 -33 103 33 116 l32 7 -28 18 c-38 25 -89 25 -103 0z"/>
<path d="M2765 989 c-37 -42 -95 -151 -95 -180 0 -9 9 -24 20 -34 17 -15 24
-16 45 -7 14 6 25 15 25 20 0 5 18 33 40 62 l40 54 0 -42 c0 -45 31 -89 52
-76 9 6 9 9 0 12 -7 2 -12 13 -12 25 0 26 24 135 35 159 8 19 -11 30 -76 42
-33 6 -39 3 -74 -35z m68 -41 c-81 -106 -100 -121 -64 -50 19 38 44 61 65 62
5 0 4 -6 -1 -12z"/>
<path d="M4083 1015 c-31 -22 -101 -131 -113 -177 -10 -36 -9 -41 11 -59 13
-11 29 -17 37 -14 7 3 15 5 17 5 2 0 20 24 40 54 20 30 43 60 51 67 14 11 15
9 9 -23 -5 -29 -2 -40 18 -64 24 -28 52 -29 29 -1 -12 14 -1 112 18 163 13 33
7 41 -33 49 -17 4 -39 8 -47 11 -9 2 -25 -3 -37 -11z m38 -72 c-6 -10 -26 -36
-45 -58 -35 -39 -35 -40 -26 -10 6 17 22 43 36 58 28 31 50 37 35 10z"/>
<path d="M4562 983 c-47 -110 -53 -185 -16 -210 21 -13 22 -11 49 94 35 137
36 157 9 161 -17 2 -25 -7 -42 -45z"/>
</g>
</svg>
